<svg width="194" height="160" viewBox="0 0 194 160" fill="none" xmlns="http://www.w3.org/2000/svg">
<path fill-rule="evenodd" clip-rule="evenodd" d="M84.0883 155.839C75.41 160.187 65.2358 160.541 55.6085 159.303C36.9705 156.905 18.1488 147.87 8.88145 131.522C4.88403 124.471 2.86511 116.475 1.45854 108.493C-0.41996 97.8317 -1.1788 86.3705 3.5417 76.6287C7.52118 68.4162 14.9063 62.44 22.264 57.0413C29.9753 51.3832 38.3289 45.882 47.8263 44.7513C75.2233 44.2086 72.4479 54.5005 101.06 38.1319C109.377 33.3734 134.107 41.5415 142.462 44.2086C150.817 46.8758 167.305 55.1045 178.487 64.8795C183.161 68.9654 187.472 73.6415 190.098 79.2665C194.031 87.6884 193.84 97.4994 192.006 106.611C190.155 115.803 186.136 125.362 177.974 129.974C174.286 132.058 170.034 132.952 165.812 133.294C148.18 134.722 129.424 127.195 113.289 134.446C102.243 139.41 94.9155 150.414 84.0883 155.839Z" fill="#DEDADA"/>
<path fill-rule="evenodd" clip-rule="evenodd" d="M17.9753 80.1859C21.2884 76.9224 24.4024 73.5575 26.498 70.6249C29.3827 66.5882 33.6122 62.75 38.624 62.0095C44.4685 61.1459 49.8361 65.1753 54.0845 69.2807C59.9539 74.9525 65.2213 81.2468 69.7698 88.0239C67.9453 88.2615 64.0136 90.983 58.7885 90.8966C55.7128 90.8458 52.0383 88.1047 48.4862 87.9217C46.0191 87.7946 43.3257 90.3771 40.8414 90.1801C36.4977 89.8358 32.4349 86.6377 28.7707 86.0591C26.5878 85.7145 23.6418 87.8843 21.9638 87.449C17.3525 86.2529 15.9859 82.1456 17.9753 80.1859Z" fill="white"/>
<path fill-rule="evenodd" clip-rule="evenodd" d="M117.326 130.96C131.646 126.239 147.162 131.711 162.238 131.509C168.918 131.419 176.058 129.945 180.656 125.1C170.584 119.17 162.94 109.74 157.372 99.4642C151.803 89.1886 148.142 78.0094 144.511 66.9004C139.734 64.1763 133.584 68.7831 128.34 67.1263C125.661 66.2797 122.46 63.9798 120.537 66.0291C119.376 67.2661 117.215 66.5384 116.086 65.2724C114.956 64.0063 114.328 62.3233 113.054 61.2022C111.781 60.0812 109.365 59.9399 108.717 61.5077C107.595 64.2217 106.413 67.025 104.263 69.0249C102.112 71.0248 98.7033 71.9901 96.1847 70.4801C94.2173 69.3005 93.2887 67.0051 92.1428 65.018C90.9969 63.0308 90.5499 61.2443 88.2712 61.5077C80.5738 77.7254 74.8271 93.6681 65.3578 108.919C61.2887 115.473 38.5222 140.455 25.2936 137.235C12.065 134.016 13.0464 131.509 8.5791 127.55C13.2326 137.017 21.4532 144.466 30.8395 149.28C40.2257 154.095 50.7388 156.41 61.2547 157.246C65.4042 157.576 69.6128 157.68 73.6974 156.877C90.4363 153.588 101.125 136.302 117.326 130.96Z" fill="white"/>
<path fill-rule="evenodd" clip-rule="evenodd" d="M102.972 67.7046C104.439 65.8094 105.355 63.5296 106.866 61.6698C108.378 59.8099 110.832 58.3683 113.118 59.0866C115.246 59.755 116.416 61.9749 117.365 63.9932C117.841 65.0066 119.289 65.085 120.332 64.6787C121.376 64.2723 122.314 63.5376 123.427 63.4162C125.73 63.1648 127.465 65.5506 129.715 66.0999C133.065 66.9174 136.431 63.4996 139.741 64.4641C141.142 64.8722 142.354 66.0432 143.81 65.9432C141.01 59.2331 138.902 52.2456 135.963 45.5955C133.024 38.9453 129.148 32.5269 123.505 27.9419C122.925 27.4705 122.29 27.0038 121.548 26.9092C120.807 26.8146 119.948 27.2357 119.818 27.9719C119.431 30.1606 119.045 32.3493 118.659 34.538C118.467 35.6215 117.962 36.9818 116.862 36.9613C116.129 36.9476 115.566 36.2289 115.466 35.5027C115.365 34.7766 115.608 34.0516 115.848 33.3588C116.599 31.1881 117.351 29.0174 118.102 26.8467C112.947 28.7068 108.479 32.1595 104.775 36.1986C101.071 40.2378 98.0753 44.867 95.2041 49.535C92.7459 53.5318 90.3644 57.5758 88.0615 61.6641C91.1496 61.2257 93.8394 63.7614 95.5866 66.3452C96.632 67.8911 97.8768 69.7329 99.743 69.7261C101.059 69.7212 102.166 68.7451 102.972 67.7046Z" fill="white"/>
<path fill-rule="evenodd" clip-rule="evenodd" d="M122.945 20.9907C122.603 20.8809 122.244 20.7561 122.011 20.4827C121.676 20.0893 121.698 19.5144 121.739 18.9993C122.137 13.9089 122.536 8.81847 122.934 3.72806C122.981 3.13821 123.559 2.70331 124.144 2.61621C124.73 2.52911 125.318 2.70633 125.884 2.88149C129.529 4.01135 133.174 5.14121 136.82 6.27107C137.709 6.54683 137.757 7.78179 137.569 8.6942C137.382 9.60661 137.241 10.7781 138.038 11.261C143.354 14.4841 149.003 17.1577 154.866 19.2257C155.245 19.3594 155.273 19.9357 155.009 20.238C154.744 20.5404 154.321 20.638 153.928 20.7218C147.976 21.992 142.151 23.8603 136.57 26.2897C135.789 26.6296 134.77 26.9403 134.18 26.3256C133.761 25.8882 133.801 25.2045 133.766 24.5996C133.73 23.9947 133.463 23.2703 132.862 23.1939C129.498 22.7663 126.173 22.0278 122.945 20.9907ZM135.434 10.6656C136.249 9.37414 135.668 7.42208 134.279 6.78724C130.984 5.28168 127.527 4.13325 123.986 3.36852C124.574 4.2764 124.543 5.43769 124.491 6.51836C124.292 10.668 124.087 14.8558 123.003 18.8665C122.91 19.2132 123.356 19.4388 123.706 19.5172C126.846 20.2193 130.01 20.8162 133.19 21.3065C132.928 18.2416 132.666 15.1768 132.404 12.1119C132.375 11.7713 132.348 11.4155 132.478 11.0992C132.688 10.5867 133.272 10.3082 133.826 10.2924C134.379 10.2767 134.914 10.4725 135.434 10.6656ZM134.751 13.0815C135.001 16.6777 135.251 20.2738 135.501 23.8699C135.523 24.1852 135.56 24.5331 135.793 24.7466C140.862 22.6424 146.114 20.9775 151.469 19.7766C145.666 18.1104 140.77 13.5522 134.751 13.0815Z" fill="#FFB61D"/>
<path fill-rule="evenodd" clip-rule="evenodd" d="M84.0882 155.839C75.4099 160.187 65.2357 160.541 55.6084 159.303C36.9704 156.906 18.1487 147.87 8.88135 131.523C4.88393 124.472 2.86501 116.476 1.45844 108.493C0.686765 104.114 -0.811896 97.5547 1.93228 94.5776C2.54542 93.9124 19.7704 80.0407 26.4987 70.6253C29.3834 66.5885 33.6129 62.7503 38.6247 62.0098C44.4692 61.1462 49.8368 65.1756 54.0853 69.281C59.9546 74.9528 65.222 81.2471 69.7705 88.0242C64.7581 85.8947 61.1506 81.4691 57.821 77.1594C54.4915 72.8498 51.051 68.3404 46.1766 65.9116C41.3022 63.4827 34.533 63.8873 31.3672 68.3186C23.8216 78.8806 14.2766 88.009 3.38853 95.076C2.56961 95.6075 2.49557 96.7568 2.51091 97.7329C2.6879 109.001 3.94771 121.833 12.9621 128.597C20.4912 134.246 31.4207 133.509 39.6682 128.972C47.9156 124.436 53.9473 116.763 59.1256 108.903C74.3154 85.8456 84.1787 59.4905 100.505 37.2238C104.259 32.105 108.68 26.9861 114.727 25.0565C118.762 23.7689 119.893 18.6203 119.819 14.3857C119.745 10.151 119.344 5.33642 122.285 2.28809C121.665 9.33012 121.045 16.3722 120.425 23.4142C129.457 27.898 134.732 37.4445 138.603 46.7548C144.352 60.5801 148.254 75.132 154.306 88.8272C160.358 102.522 168.949 115.682 181.649 123.614C187.527 115.961 190.879 103.71 190.879 96.7087C187.527 93.0552 182.765 87.3398 177.194 84.7663C170.553 81.6985 163.268 87.0769 157.933 92.0824C160.881 87.5943 164.421 82.87 169.638 81.599C173.85 80.5729 178.357 82.1033 181.852 84.6686C185.346 87.2339 188.01 90.7449 190.623 94.2042C193.264 95.076 193.84 97.5 192.005 106.612C190.155 115.803 186.136 125.362 177.974 129.975C174.286 132.059 170.034 132.953 165.812 133.295C148.18 134.723 129.424 127.195 113.289 134.447C102.243 139.411 94.9154 150.415 84.0882 155.839ZM117.327 130.96C131.646 126.239 147.163 131.711 162.239 131.509C168.918 131.419 176.058 129.945 180.656 125.1C170.585 119.17 162.941 109.74 157.372 99.4642C151.804 89.1886 148.143 78.0094 144.512 66.9004C139.734 64.1764 133.585 68.7831 128.341 67.1263C125.661 66.2797 122.461 63.9799 120.538 66.0291C119.377 67.2661 117.215 66.5385 116.086 65.2724C114.957 64.0063 114.328 62.3233 113.055 61.2022C111.782 60.0812 109.365 59.94 108.717 61.5077C107.596 64.2217 106.414 67.025 104.263 69.0249C102.113 71.0248 98.7039 71.9902 96.1853 70.4801C94.218 69.3005 93.2894 67.0052 92.1434 65.018C90.9975 63.0309 89.0995 61.0441 86.8208 61.3075C79.1234 77.5252 70.5129 93.3094 61.0436 108.56C56.9745 115.114 52.6678 121.662 46.8399 126.715C41.0119 131.769 33.4014 135.226 25.7195 134.523C19.5204 133.956 13.8895 130.799 8.57974 127.55C13.2332 137.017 21.4538 144.466 30.8401 149.28C40.2264 154.095 50.7394 156.41 61.2553 157.246C65.4049 157.576 69.6135 157.68 73.698 156.878C90.437 153.588 101.126 136.302 117.327 130.96ZM102.675 66.5154C104.141 64.6203 105.058 62.3404 106.569 60.4806C108.081 58.6208 110.535 57.1791 112.821 57.8974C114.949 58.5659 116.119 60.7858 117.068 62.8041C117.544 63.8174 118.992 63.8959 120.035 63.4895C121.079 63.0832 122.017 62.3485 123.13 62.227C125.433 61.9757 127.168 64.3614 129.418 64.9108C132.768 65.7282 136.134 62.3104 139.444 63.2749C140.845 63.6831 142.057 64.854 143.513 64.754C140.713 58.044 138.62 51.4368 135.681 44.7867C132.742 38.1366 126.358 26.3759 121.251 25.72C116.086 25.0566 108.182 30.9703 104.478 35.0095C100.774 39.0486 97.7782 43.6778 94.907 48.3458C92.4488 52.3426 90.0673 56.3866 87.7644 60.4749C90.8525 60.0365 93.5423 62.5723 95.2895 65.156C96.3349 66.702 97.5797 68.5438 99.4459 68.5369C100.762 68.5321 101.869 67.5559 102.675 66.5154Z" fill="#00160A"/>
<path fill-rule="evenodd" clip-rule="evenodd" d="M79.9108 12.5858C76.6664 12.915 74.02 15.7635 72.6833 19.6182C72.3359 20.6202 71.1952 21.083 69.1938 21.2758L69.0676 21.2875C64.6364 21.6826 61.6947 22.8239 60.2764 25.433L60.2171 25.5446C60.1017 25.7664 60.0029 25.9879 59.8584 26.3381L59.7651 26.5661C59.4304 27.3887 59.2592 27.7367 58.9727 28.0989C58.0806 29.2266 56.7382 29.5737 54.052 29.6544L53.7536 29.6622C47.3176 29.8055 42.7709 30.7834 39.0878 33.3556C38.0342 34.0914 37.4069 34.8218 37.2665 35.7579C37.1055 36.8309 37.7288 37.9418 38.724 38.5518C39.5203 39.0398 40.4754 39.2326 41.6682 39.2361C43.1194 39.2403 44.5706 38.9877 45.935 38.4933L46.0488 38.4516C46.2542 38.3754 46.4491 38.2977 46.7387 38.1777L47.3521 37.9217C48.6104 37.4011 49.2209 37.2166 49.9865 37.1764C51.1677 37.1145 52.0999 37.4262 54.0848 38.3961L54.5023 38.6009C54.9344 38.8124 55.2462 38.9598 55.5519 39.0938L55.6352 39.13C58.9652 40.5683 62.3696 40.8089 67.8991 40.3873L68.9901 40.2992L71.4063 40.0948C72.0407 40.0432 72.4947 40.0102 73.0179 39.9771L73.5226 39.9473C75.6765 39.8301 77.9756 39.8282 81.73 39.9031L84.3122 39.957C89.4875 40.0591 91.8204 40.0315 94.3078 39.7755C97.1975 39.478 99.0795 37.4603 99.851 34.4712C100.476 32.0485 100.249 29.2218 99.3777 27.8787C97.6379 25.1967 95.0412 23.5813 92.652 24.3257C91.86 24.5725 90.8637 23.9909 90.3553 23.0367C90.0792 22.5185 89.939 22.051 89.7088 21.0035L89.5974 20.4965C89.5331 20.21 89.486 20.0183 89.4265 19.8029C88.6159 16.8697 86.4023 14.3651 83.591 13.2002C82.3574 12.689 81.1023 12.4649 79.9108 12.5858ZM83.2494 14.0241C85.7635 15.0658 87.7605 17.2948 88.528 19.905L88.5666 20.0404C88.6219 20.2404 88.6665 20.4219 88.7283 20.6978L88.866 21.3237C89.0977 22.3629 89.2542 22.8669 89.568 23.456C90.2449 24.7266 91.604 25.5371 92.843 25.1988L92.9172 25.1772C94.8339 24.58 97.0817 25.9784 98.6293 28.364C99.348 29.472 99.5552 32.0476 98.9873 34.2481C98.301 36.9066 96.6906 38.6333 94.2164 38.888L93.9391 38.9156C91.6608 39.1349 89.3946 39.1611 84.7209 39.0726L81.3084 39.0026C77.7888 38.9361 75.5686 38.9424 73.4728 39.0566L72.6507 39.1069C72.0639 39.1462 71.5044 39.1902 70.5903 39.2674L68.0706 39.4791C62.6131 39.9093 59.2949 39.7032 56.1284 38.3705L55.9888 38.311C55.7242 38.1967 55.4598 38.074 55.113 37.9061L54.3298 37.5232C52.3062 36.5418 51.2914 36.2146 49.9397 36.2855C49.0158 36.334 48.3248 36.5494 46.8915 37.1469L46.2576 37.4111C46.0068 37.5138 45.8317 37.5818 45.6311 37.6545C44.3649 38.1133 43.0174 38.3479 41.6707 38.3439C40.6268 38.3408 39.8221 38.1785 39.19 37.7911C38.4805 37.3562 38.045 36.58 38.1485 35.8901C38.2432 35.2591 38.7277 34.6949 39.5985 34.0868C43.0572 31.6713 47.3809 30.7191 53.5233 30.5598L53.7733 30.5538C56.9245 30.4836 58.5193 30.1095 59.6722 28.6521C59.9988 28.2392 60.1911 27.8693 60.503 27.1171L60.7443 26.5305C60.8665 26.2402 60.953 26.0558 61.0601 25.8588C62.2561 23.6585 64.8336 22.6082 68.7889 22.2097L69.1468 22.1758C71.5166 21.9645 72.9583 21.4149 73.497 19.9903L73.526 19.9103C74.7608 16.3492 77.1657 13.7608 80.0007 13.4731C80.99 13.3727 82.0484 13.5496 83.1053 13.9658L83.2494 14.0241Z" fill="#00160A"/>
<path fill-rule="evenodd" clip-rule="evenodd" d="M176.587 31.0461L176.477 31.1561C176.393 31.2418 176.31 31.3306 176.208 31.4441L175.799 31.9034C175.41 32.3393 175.2 32.547 174.925 32.7548C174.325 33.2073 173.607 33.3471 173.129 33.0798C172.937 32.9723 172.794 32.8313 172.518 32.4921L172.313 32.2388C172.206 32.1091 172.13 32.0238 172.036 31.9296C170.805 30.6891 168.655 30.6291 167.019 31.6166C165.738 32.3894 164.817 33.5732 163.81 35.4566C163.398 36.226 162.493 36.758 161.415 36.9207C160.892 36.9997 160.342 37.0056 159.638 36.9534L159.294 36.9247L158.212 36.815C152.519 36.2535 146.697 37.0579 141.37 39.142C140.53 39.4708 140.062 39.7656 139.765 40.3145C139.338 41.1057 139.771 42.254 140.685 42.3046C156.301 43.1699 171.981 42.8743 187.553 41.421L188.541 41.3283L189.262 41.2788C189.329 41.2738 189.385 41.2692 189.454 41.263L189.639 41.2446C191.059 41.0871 191.84 40.6158 191.84 39.4346C191.84 38.2936 191.29 37.9816 189.901 37.8401L189.623 37.8109C189.085 37.7521 188.84 37.7081 188.508 37.6053C187.33 37.2404 185.928 36.4797 185.621 36.0998C185.169 35.5378 184.976 35.0089 184.701 33.7793L184.614 33.3902C184.324 32.1236 184.094 31.5194 183.549 30.8418C181.958 28.8637 178.563 29.1057 176.587 31.0461ZM182.854 31.401C183.306 31.9628 183.499 32.4918 183.774 33.7194L183.861 34.1087C184.151 35.3773 184.381 35.9815 184.927 36.6595C185.369 37.2078 186.912 38.0449 188.244 38.4575L188.366 38.4942C188.685 38.586 188.952 38.6328 189.419 38.6859L190.034 38.752C190.819 38.8449 190.948 38.9566 190.948 39.4348C190.948 40.0167 190.526 40.2608 189.465 40.3663L189.194 40.3896L188.514 40.4358C188.482 40.4383 188.451 40.4408 188.421 40.4434L188.333 40.4514C172.522 41.9709 156.595 42.293 140.734 41.4142C140.553 41.4042 140.404 41.009 140.55 40.7389C140.715 40.4347 141.041 40.2287 141.695 39.9729C146.802 37.9751 152.376 37.1826 157.838 37.6757L158.506 37.7418L159.058 37.7984C159.187 37.811 159.293 37.8207 159.411 37.8305C160.253 37.9004 160.908 37.8997 161.549 37.8029C162.882 37.6015 164.037 36.9231 164.596 35.8777C165.535 34.124 166.369 33.0505 167.48 32.3805C168.79 31.59 170.49 31.6375 171.403 32.5581L171.456 32.6132C171.5 32.66 171.545 32.7104 171.599 32.7755L171.77 32.9855C172.153 33.4611 172.357 33.6696 172.694 33.8583C173.525 34.3233 174.607 34.1126 175.462 33.467C175.776 33.2299 176.007 33.0066 176.388 32.5835L176.864 32.0491C177.002 31.8963 177.099 31.7936 177.212 31.6826C178.844 30.0797 181.632 29.8811 182.854 31.401Z" fill="#00160A"/>
<path fill-rule="evenodd" clip-rule="evenodd" d="M119.819 14.3857C119.745 10.151 119.344 5.33642 122.285 2.28809C121.665 9.33013 121.045 16.3722 120.425 23.4142C121.432 23.9138 119.931 24.7496 119.021 24.7664C115.763 24.8266 119.893 18.6203 119.819 14.3857Z" fill="#FFB61D"/>
</svg>
