<svg width="174" height="140" viewBox="0 0 174 140" fill="none" xmlns="http://www.w3.org/2000/svg">
<path fill-rule="evenodd" clip-rule="evenodd" d="M147.904 19.4618C119.751 2.70587 97.7996 51.8905 81.8558 58.0823C49.7235 70.5609 -9.95946 81.4141 1.42267 105.674C17.0512 138.985 71.4296 142.309 110.317 138.985C160.896 134.662 203.256 52.4055 147.904 19.4618Z" fill="#F9A73E"/>
<path fill-rule="evenodd" clip-rule="evenodd" d="M144.107 73.1729C144.398 73.4364 144.497 73.8488 144.569 74.2436L145.011 76.7209C145.073 77.0654 145.354 77.2285 145.462 77.0325C145.577 76.8248 145.883 76.911 146.088 77.0231L148.649 78.4237C147.778 79.0663 146.75 79.4828 145.686 79.6239C145.162 79.6935 145.077 80.4316 145.133 80.972L145.284 82.4421C145.332 82.9001 144.63 83.0557 144.28 82.7684C143.93 82.481 143.797 81.9999 143.521 81.6369C143.075 81.0507 142.287 80.8321 141.566 80.9C140.845 80.9679 140.17 81.2785 139.51 81.5848C139.084 81.7823 138.616 81.2592 138.65 80.7807C138.679 80.3585 138.942 80.0046 139.21 79.6751L139.317 79.5445C139.617 79.1776 139.918 78.7427 139.867 78.2658C139.825 77.8687 139.549 77.5489 139.272 77.2634L139.11 77.0964C138.854 76.8269 138.61 76.5274 138.565 76.1588C138.514 75.7377 138.888 75.2529 139.281 75.3834C140.795 75.8863 142.617 74.9059 143.078 73.3412C143.198 72.9347 143.797 72.892 144.107 73.1729Z" fill="white"/>
<path fill-rule="evenodd" clip-rule="evenodd" d="M144.107 73.1729C144.398 73.4364 144.497 73.8488 144.569 74.2436L145.011 76.7209C145.073 77.0654 144.938 77.5987 144.618 77.4782C144.162 76.4852 143.919 75.3896 143.912 74.2917C143.739 74.1201 143.48 74.3754 143.372 74.5968L142.291 76.8096C142.101 77.1992 141.533 77.1132 141.158 76.9095L140.957 76.8001C140.631 76.6267 140.277 76.4732 139.968 76.6441C139.811 77.1286 140.511 77.3703 140.874 77.7191C141.289 78.1174 141.264 78.8324 140.974 79.3338C140.684 79.8352 140.195 80.1732 139.721 80.4942C140.401 80.6096 141.127 80.4052 141.656 79.9493C141.895 79.7434 142.113 79.479 142.419 79.4135C142.891 79.312 143.315 79.7327 143.56 80.1595C143.805 80.5864 143.999 81.0862 144.417 81.3324C144.627 80.9931 144.515 80.5671 144.383 80.1748L144.32 79.9919C144.169 79.5534 144.101 78.9724 144.472 78.7062C144.612 78.6061 144.785 78.5769 144.956 78.5578L146.782 78.3699L145.73 77.5819C145.553 77.4492 145.354 77.2285 145.462 77.0325C145.577 76.8248 145.883 76.911 146.088 77.0231L148.649 78.4237C147.778 79.0663 146.75 79.4828 145.686 79.6239C145.162 79.6935 145.077 80.4316 145.133 80.972L145.284 82.4421C145.332 82.9001 144.63 83.0557 144.28 82.7684C143.93 82.481 143.797 81.9999 143.521 81.6369C143.075 81.0507 142.287 80.8321 141.566 80.9C140.845 80.9679 140.17 81.2785 139.51 81.5848C139.084 81.7823 138.616 81.2592 138.65 80.7807C138.679 80.3585 138.942 80.0046 139.21 79.6751L139.317 79.5445C139.617 79.1776 139.918 78.7427 139.867 78.2658C139.825 77.8687 139.549 77.5489 139.272 77.2634L139.11 77.0964C138.854 76.8269 138.61 76.5274 138.565 76.1588C138.514 75.7377 138.888 75.2529 139.281 75.3834C140.795 75.8863 142.617 74.9059 143.078 73.3412C143.198 72.9347 143.797 72.892 144.107 73.1729Z" fill="#FFB61D"/>
<path fill-rule="evenodd" clip-rule="evenodd" d="M43.3368 28.7452C42.2408 23.74 45.2268 15.4315 50.5619 12.0908C55.897 8.75014 62.7212 8.52129 68.6629 10.5051C68.4734 4.60669 74.2945 -0.454812 80.0179 0.0325096C85.7413 0.519831 90.4901 5.80029 91.259 11.6488C91.8582 16.2058 89.5818 21.6339 85.1796 22.4593C86.7357 28.1726 87.6009 34.184 86.7468 40.0516C85.8927 45.9192 83.1755 51.651 78.5897 55.2555C77.3236 57.0056 78.2799 59.6455 79.9467 60.9952C81.6134 62.345 83.7706 62.8194 85.765 63.5643C94.1219 66.6854 100.006 75.1579 101.377 84.1859C102.749 93.2139 100.009 102.577 95.0587 110.167C91.6678 115.366 87.055 119.982 81.2838 121.982C73.1833 124.788 64.3017 122.056 56.4358 118.616C53.4374 117.305 50.3839 115.815 48.2673 113.268C45.9982 110.539 41.7098 112.013 38.6171 113.683C40.6735 114.559 42.7298 115.436 44.7862 116.313C45.2281 116.501 45.7074 116.725 45.9123 117.169C46.3437 118.104 45.2811 119.004 44.3817 119.47C43.4152 119.97 42.4487 120.47 41.4822 120.97C35.5498 124.04 29.3713 127.176 22.7317 127.366C15.4726 127.573 8.61563 124.239 2.08258 120.981C1.35642 120.619 0.586679 120.215 0.191838 119.492C-0.203003 118.768 0.0177032 117.64 0.798053 117.428C8.12703 115.436 15.0658 111.941 21.0866 107.207C20.6261 104.26 20.7346 101.22 21.4042 98.3163C21.501 97.8962 21.6403 97.4357 22.0045 97.2206C22.9001 96.692 23.678 98.0846 23.8362 99.1335C24.2356 101.781 24.6351 104.428 25.0345 107.076C29.8306 106.531 34.4854 104.72 38.4308 101.865C35.3536 99.3188 32.2763 96.7721 29.199 94.2254C27.4235 92.756 25.7096 91.877 24.7507 88.9997C24.1114 87.0815 24.6274 85.1111 26.2986 83.0884C24.433 73.5342 23.6167 66.3321 23.8497 61.482C23.9119 60.1874 24.0529 58.7899 24.9008 57.8303C26.3976 56.1366 29.3367 56.867 30.7029 58.6735C32.0691 60.4801 32.2978 62.9044 32.4745 65.1852C37.6765 64.5321 42.8786 63.879 48.0806 63.2258C49.9839 62.9869 51.9547 62.7534 53.7866 63.3355C56.0848 64.0658 57.9306 66.1342 58.44 68.5502C60.6351 67.9405 63.0261 67.1896 64.2657 65.2307C65.5054 63.2718 64.4554 59.8648 62.1836 59.9658C55.0774 60.2818 48.1276 54.8629 46.5102 47.7451C46.0989 45.9348 45.939 43.9231 44.7023 42.5663C42.7426 40.4163 41.2494 37.6447 41.259 34.6989C41.2686 31.7531 42.4696 31.4016 43.3368 28.7452ZM0.918167 119.402C1.07816 119.647 1.35742 119.776 1.6219 119.892C4.33556 121.086 7.04921 122.279 9.76287 123.472C10.9976 124.016 12.2364 124.56 13.5276 124.94C17.1288 125.999 21.0093 125.74 24.5898 126.871C25.0241 127.008 25.4903 126.866 25.9227 126.723C29.0455 125.689 32.1317 124.539 35.1728 123.274C38.3545 121.95 41.5075 120.49 44.3324 118.487C44.5893 118.305 44.8561 118.102 44.9733 117.805C45.0906 117.507 44.9826 117.094 44.6822 117.006C42.7757 116.449 40.8969 115.793 39.0554 115.04C38.4634 114.798 37.797 114.453 37.6714 113.811C36.0491 113.878 34.6305 114.93 33.4339 116.057C32.2373 117.185 31.1132 118.459 29.6388 119.157C28.1643 119.856 26.1854 119.795 25.164 118.498C25.0549 118.36 24.9453 118.2 24.7776 118.155C24.6098 118.11 24.3944 118.282 24.4725 118.441C24.675 118.853 24.2401 119.374 23.7918 119.345C23.3435 119.317 22.993 118.897 22.8827 118.45C22.7723 118.002 22.1734 118.802 21.3053 118.935C20.4372 119.068 19.5163 118.495 19.2279 117.643C18.9903 116.941 18.0586 116.929 17.3467 116.798C15.7279 116.499 14.4986 114.756 14.7263 113.082C10.0741 114.676 5.50618 116.531 1.04952 118.634C0.788078 118.757 0.75817 119.156 0.918167 119.402Z" fill="white"/>
<path d="M66.2313 50.5357C67.5973 50.5357 68.7047 49.3977 68.7047 47.9939C68.7047 46.5901 67.5973 45.4521 66.2313 45.4521C64.8652 45.4521 63.7578 46.5901 63.7578 47.9939C63.7578 49.3977 64.8652 50.5357 66.2313 50.5357Z" fill="#FFB61D"/>
<path d="M49.0634 48.4432C49.7866 48.4432 50.3729 47.8408 50.3729 47.0976C50.3729 46.3544 49.7866 45.752 49.0634 45.752C48.3402 45.752 47.7539 46.3544 47.7539 47.0976C47.7539 47.8408 48.3402 48.4432 49.0634 48.4432Z" fill="#FFB61D"/>
<path fill-rule="evenodd" clip-rule="evenodd" d="M78.0431 58.1961C78.2698 59.4043 78.9431 60.5747 79.8394 61.3006C81.5062 62.6503 85.2527 64.0401 87.2471 64.785C87.4286 64.8527 86.4053 65.4466 85.0843 66.7599C81.5079 70.3153 73.6881 76.6818 66.0485 73.4823C65.1556 73.1084 64.409 72.6779 63.8008 72.2216C63.2404 71.8011 68.3838 72.4068 73.1922 71.47C78.0268 70.5281 82.5248 68.0396 81.3209 66.0668C80.1892 64.2124 77.0064 61.0714 76.7582 59.224C76.4275 56.7626 77.8482 57.1578 78.0431 58.1961Z" fill="#E7EAEE"/>
<path fill-rule="evenodd" clip-rule="evenodd" d="M0.820312 118.703C0.820312 117.717 3.84577 116.92 9.01779 114.92C12.5751 113.545 19.5088 109.566 22.9202 109.381C25.1902 109.258 34.2619 112.671 40.1823 115.122C43.1591 116.354 45.4554 117.126 45.4554 117.522C45.4554 118.316 39.1347 122.15 32.6746 124.67C29.5214 125.9 26.5631 127.002 23.85 126.927C15.5785 126.7 0.820312 121.2 0.820312 118.703Z" fill="white"/>
<path fill-rule="evenodd" clip-rule="evenodd" d="M117.674 36.8089C105.812 42.0148 95.9035 50.9104 86.4625 59.9563L85.8851 60.5103C85.3343 61.0393 84.4983 61.5924 83.904 61.1157L85.7385 59.3996C95.3373 50.4377 105.262 41.5513 117.138 36.2717C126.269 32.2125 126.172 33.0789 117.674 36.8089ZM66.5823 123.523L72.1464 129.752C72.4191 130.057 72.703 130.384 72.7793 130.791C72.8556 131.198 72.6262 131.695 72.2252 131.738L60.7691 132.969C58.8662 133.173 56.9257 131.818 56.3778 129.934C55.8299 128.05 56.7069 125.844 58.3641 124.861C60.0214 123.879 62.2946 124.189 63.6703 125.555C64.0111 125.894 64.6095 125.606 64.8514 125.187C65.0934 124.768 65.1456 124.255 65.3956 123.841C65.6456 123.427 66.2618 123.165 66.5823 123.523ZM57.3439 127.118C56.6335 128.504 57.0827 130.38 58.2987 131.324C58.8945 131.787 59.626 132.035 60.3633 132.157C61.4046 132.33 62.6127 132.199 63.2822 131.362C63.5265 131.056 63.6763 130.681 63.7785 130.299C64.1188 129.03 63.9458 127.623 63.3088 126.48C63.1354 126.169 62.8687 125.845 62.5201 125.86C62.3545 125.867 62.2007 125.953 62.0358 125.971C61.7613 126 61.5072 125.839 61.2571 125.719C59.8756 125.058 58.0543 125.733 57.3439 127.118ZM66.088 124.773C65.8693 125.71 65.4166 126.589 64.7852 127.301C64.6074 127.502 64.651 127.812 64.687 128.081C64.8625 129.391 64.5724 130.761 63.8831 131.877C65.0126 131.603 66.1675 131.438 67.3272 131.388C68.9168 131.318 70.5753 131.449 72.0322 130.792C71.2539 130.444 70.5932 129.825 70.1845 129.06C69.9441 128.611 69.6115 128.222 69.2818 127.837L66.7483 124.878C66.5652 124.664 66.1526 124.496 66.088 124.773ZM37.3171 124.717C37.6803 125.882 39.0467 126.282 40.2305 126.492L48.1304 127.847C49.957 128.161 51.8318 128.474 53.6484 128.104C53.9911 128.034 54.1724 128.593 53.9463 128.867C53.7202 129.141 53.3267 129.173 52.9773 129.174C51.3946 129.18 49.8213 128.963 48.2549 128.722L46.5865 128.46C43.6337 127.994 40.6823 127.497 37.792 126.724C37.2973 126.592 36.7848 126.441 36.4061 126.088C36.0274 125.735 35.8304 125.119 36.0969 124.671C36.3634 124.222 37.1611 124.216 37.3171 124.717ZM80.0179 0.0325096C85.7412 0.519831 90.49 5.80029 91.259 11.6488C91.8582 16.2058 89.5818 21.6339 85.1796 22.4593C86.7357 28.1727 87.6009 34.184 86.7468 40.0516C85.8927 45.9192 83.1754 51.651 78.5897 55.2555C77.3236 57.0056 78.2799 59.6455 79.9466 60.9952C81.6134 62.345 83.7706 62.8194 85.765 63.5643C94.1219 66.6854 100.006 75.1579 101.377 84.1859C102.749 93.2139 100.009 102.577 95.0586 110.167C91.6678 115.366 87.055 119.982 81.2838 121.982C73.2643 124.76 64.4793 122.11 56.6721 118.719L56.4358 118.616C53.4998 117.332 50.5111 115.877 48.4008 113.426L48.2673 113.268C45.9982 110.539 41.7098 112.013 38.6171 113.683L44.7862 116.313C45.228 116.501 45.7074 116.725 45.9123 117.169C46.3437 118.104 45.2811 119.004 44.3817 119.47L40.7595 121.344C35.0481 124.289 29.1021 127.184 22.7317 127.366C15.557 127.571 8.77515 124.316 2.31061 121.094L1.90037 120.889C1.23073 120.549 0.553775 120.155 0.191838 119.492C-0.203003 118.768 0.0177032 117.64 0.798053 117.428C8.12702 115.436 15.0658 111.941 21.0866 107.207C20.6261 104.26 20.7346 101.22 21.4041 98.3163L21.4382 98.1751C21.5347 97.7969 21.6807 97.4118 22.0045 97.2206C22.9001 96.692 23.678 98.0847 23.8362 99.1335L25.0345 107.076C29.8306 106.531 34.4854 104.72 38.4308 101.865L28.9509 94.0197C27.2536 92.6085 25.5352 91.0829 24.7507 88.9997C23.928 86.8149 24.5899 83.8533 26.716 83.0078C26.8837 74.7316 26.4592 66.4428 25.447 58.2304C24.0473 66.4326 25.1722 74.8419 26.2986 83.0884C24.3671 76.2178 23.5308 69.0237 23.8318 61.8789L23.8497 61.482C23.9119 60.1874 24.0529 58.7899 24.9008 57.8303C26.3976 56.1366 29.3367 56.867 30.7029 58.6735C32.0691 60.4801 32.2978 62.9044 32.4745 65.1852L48.4382 63.1813C50.2297 62.9609 52.0692 62.7898 53.7866 63.3355C56.0848 64.0658 57.9306 66.1342 58.44 68.5502L58.8144 68.4451C60.9021 67.8516 63.0962 67.0788 64.2657 65.2307C65.4922 63.2927 64.4775 59.9371 62.2557 59.9638L62.1836 59.9658C55.0774 60.2818 48.1276 54.863 46.5102 47.7451C46.0989 45.9348 45.939 43.9231 44.7023 42.5663C42.7426 40.4164 41.2494 37.6447 41.259 34.6989C41.2686 31.7531 43.0964 28.7152 45.8799 28.011C48.6634 27.3068 51.9577 29.6933 51.7175 32.6287C53.0679 32.4874 54.4493 32.668 55.7223 33.1523C54.9963 31.1411 56.878 28.921 58.9461 28.6291C61.0142 28.3371 63.0295 29.3986 64.7493 30.6145C66.4691 31.8304 68.1125 33.2618 70.112 33.8781L70.2042 33.6589C70.6174 32.6674 70.998 31.6085 70.7898 30.5604C70.5661 29.4346 69.3318 28.461 68.3326 28.9764C67.6311 26.911 66.5148 24.9954 65.0743 23.3848L61.0707 25.3245C60.5549 24.5306 60.2389 23.6008 60.1617 22.6496C57.5182 24.202 54.6491 25.3477 51.6792 26.0367L51.9831 23.7066L43.1081 28.4437C41.7976 22.1664 45.2268 15.4315 50.5619 12.0908C55.897 8.75014 62.7211 8.52129 68.6629 10.5051C68.4734 4.60669 74.2945 -0.454812 80.0179 0.0325096ZM123.68 102.344C118.567 103.612 113.603 105.516 108.932 108L108.594 108.182C106.006 109.583 103.466 111.262 101.843 113.753C102.939 113.558 104.109 113.852 104.993 114.544C105.552 114.981 106.019 115.636 105.986 116.357C105.969 116.731 105.818 117.087 105.614 117.397C104.818 118.609 103.133 119.101 101.836 118.5C100.539 117.9 99.7816 116.277 100.138 114.861C94.6355 116.792 89.9052 120.945 87.1859 126.225L87.095 126.404C86.961 126.67 86.7973 126.967 86.5132 127.033C86.1225 127.124 85.7747 126.676 85.7926 126.265C85.8105 125.853 86.0669 125.499 86.3147 125.176C89.5211 120.992 93.2683 117.009 98.0637 114.99L98.4249 114.841C99.5561 114.379 100.74 113.927 101.471 112.943C103.243 110.558 105.793 108.921 108.384 107.535C110.702 106.294 113.1 105.212 115.557 104.296C118.022 103.377 120.543 102.627 123.07 101.901L131.628 99.4523C129.313 101.124 126.43 101.662 123.68 102.344ZM14.7263 113.082C10.0741 114.676 5.50618 116.531 1.04952 118.634C0.788078 118.757 0.758169 119.156 0.918167 119.402C1.07816 119.647 1.35742 119.776 1.6219 119.892L9.76287 123.473C10.9976 124.016 12.2364 124.56 13.5276 124.94C17.1288 125.999 21.0093 125.74 24.5898 126.871C25.0241 127.008 25.4903 126.866 25.9227 126.723C29.0455 125.689 32.1317 124.539 35.1728 123.274C38.3545 121.95 41.5075 120.49 44.3324 118.487C44.5893 118.305 44.8561 118.102 44.9733 117.805C45.0906 117.507 44.9825 117.094 44.6822 117.006C42.7757 116.449 40.8969 115.793 39.0554 115.04L38.9277 114.987C38.371 114.747 37.788 114.407 37.6714 113.811C36.0491 113.878 34.6305 114.93 33.4339 116.057C32.2373 117.185 31.1132 118.459 29.6388 119.157C28.1643 119.856 26.1854 119.795 25.164 118.498L25.098 118.414C25.0087 118.301 24.9118 118.191 24.7776 118.155C24.6098 118.11 24.3943 118.282 24.4725 118.441C24.675 118.853 24.2401 119.374 23.7918 119.345C23.3435 119.317 22.993 118.897 22.8827 118.45C22.8117 118.162 22.818 117.865 22.8519 117.568L22.8604 117.495C22.6611 118.221 22.0363 118.823 21.3053 118.935C20.4372 119.068 19.5163 118.495 19.2279 117.643C18.9903 116.941 18.0586 116.929 17.3466 116.798C15.7279 116.499 14.4986 114.756 14.7263 113.082ZM25.7206 85.1437C24.7616 86.8966 25.6523 89.115 26.8335 90.7183C30.5375 95.7459 36.7415 98.1587 40.9746 102.724C42.0382 103.871 42.9653 105.142 43.8805 106.418L46.7573 110.433C47.286 111.171 47.8166 111.911 48.4336 112.573C50.0424 114.298 52.1606 115.411 54.2558 116.447C58.5069 118.549 62.8802 120.481 67.4957 121.484C72.1112 122.488 77.0153 122.522 81.4561 120.885C85.6126 119.354 89.1941 116.417 91.9767 112.893C94.693 109.454 96.6869 105.467 98.285 101.352L98.4012 101.05C98.6312 100.45 98.8571 99.8223 98.8094 99.1791C98.7589 98.4989 98.4062 97.8804 97.9946 97.3453C96.4252 95.3049 93.8022 94.1508 91.2903 94.4697C88.8177 94.7837 86.5536 96.5467 85.6479 98.9292L85.6058 99.0432C83.6374 104.526 78.736 108.65 73.2298 110.114C67.7236 111.577 61.7346 110.529 56.7087 107.793C51.6828 105.057 47.5818 100.727 44.524 95.799L44.3571 95.527C43.8047 94.6158 43.3025 93.6572 43.108 92.6061C42.8941 91.4498 43.1116 90.1495 43.9242 89.32C44.4609 88.7721 45.2248 88.4506 45.6152 87.7846C46.0056 87.1187 45.5472 85.9424 44.8269 86.1803L44.3464 86.3366C41.0361 87.3951 37.1955 88.2161 34.5322 86.0136L34.2763 85.8032C33.0338 84.7885 31.7059 83.82 30.1621 83.471C28.5119 83.0979 26.5486 83.6301 25.7206 85.1437ZM38.9164 102.913C34.9011 105.52 30.3697 107.284 25.6813 108.064C25.0623 108.168 24.8959 108.992 24.8862 109.636C24.8552 111.684 24.9517 113.734 25.1749 115.769C25.6828 115.523 25.8905 114.909 26.2367 114.456C26.583 114.002 27.3731 113.753 27.6407 114.26C27.8277 114.614 27.5782 115.058 27.2596 115.293C26.941 115.527 26.5492 115.655 26.265 115.932C25.5582 116.623 25.9277 117.982 26.7889 118.452C27.65 118.923 28.7394 118.678 29.565 118.144C30.3907 117.61 31.0286 116.827 31.7287 116.129C33.226 114.636 35.0574 113.499 37.04 112.832C39.557 111.985 42.3597 111.859 44.5741 110.365C44.7233 110.265 44.8776 110.147 44.9339 109.973C45.0107 109.735 44.8807 109.489 44.7427 109.277L42.0934 105.324C41.6713 104.694 41.1857 104.018 40.4626 103.838C40.132 103.755 39.7795 103.787 39.455 103.682C39.1306 103.577 38.8249 103.25 38.9164 102.913ZM20.4193 108.656C19.3863 109.151 18.775 110.317 18.6389 111.48C18.5029 112.643 18.77 113.814 19.0873 114.939C19.2821 115.63 19.4981 116.319 19.8203 116.957C20.0257 117.364 20.2977 117.77 20.7093 117.947C21.121 118.124 21.6922 117.965 21.826 117.527C21.8811 117.347 21.8564 117.152 21.8245 116.966C21.7047 116.267 21.4895 115.586 21.1877 114.947L21.061 114.688C20.8794 114.315 20.7084 113.874 20.9418 113.549C21.1648 113.237 21.7127 113.109 21.6603 112.726L21.1487 108.989C21.1338 108.88 21.1162 108.765 21.0472 108.68C20.9019 108.503 20.6239 108.558 20.4193 108.656ZM102.315 114.42C101.974 114.418 101.615 114.467 101.342 114.675C101.181 114.798 101.06 114.969 100.975 115.154C100.615 115.939 100.947 116.947 101.629 117.457C102.311 117.968 103.256 118.016 104.046 117.71C104.65 117.476 105.23 116.946 105.21 116.283C105.194 115.76 104.808 115.324 104.382 115.037C103.773 114.628 103.043 114.423 102.315 114.42ZM22.3574 98.0661C22.2701 98.1328 22.2269 98.2429 22.19 98.3481C21.6529 99.8796 21.5871 101.54 21.6019 103.168C21.6391 107.249 22.1494 111.326 23.1186 115.284L23.1667 115.477C23.3649 116.25 23.6357 117.043 24.2492 117.521C24.3633 111.248 23.9673 104.965 23.0665 98.7601C23.008 98.3573 22.6754 97.8232 22.3574 98.0661ZM17.5202 111.549C17.3919 111.586 17.3096 111.712 17.2456 111.832C16.7218 112.814 16.6864 114.055 17.1534 115.067C17.3628 115.521 17.7218 115.962 18.2074 116.017C18.4054 115.764 18.3149 115.399 18.204 115.089L18.1082 114.826C17.7517 113.833 17.4592 112.758 17.7734 111.76C17.8144 111.63 17.6484 111.512 17.5202 111.549ZM15.7727 112.91C15.4054 113.749 15.5691 114.805 16.1719 115.486C16.4208 115.224 16.3113 114.796 16.2263 114.441C16.0933 113.885 16.0633 113.303 16.1383 112.736C16.0456 112.597 15.8402 112.756 15.7727 112.91ZM23.5153 82.9989C24.0721 83.4917 24.4261 84.5554 23.7649 84.8848C23.3412 85.0959 22.8611 84.7872 22.461 84.5321C20.3822 83.2067 17.7241 83.109 15.3673 83.7833C13.0105 84.4576 10.9034 85.8311 8.92589 87.3113C6.95658 88.7852 5.05771 90.4026 3.57692 92.3907C2.09612 94.3788 1.04872 96.7745 0.962767 99.2765C0.859775 102.275 2.12023 105.141 3.57774 107.74C4.50668 109.397 5.55421 111.03 6.99624 112.233L7.2927 112.474C7.70176 112.811 8.12178 113.23 8.01746 113.737C6.60401 113.672 5.57813 112.372 4.79973 111.158C3.69287 109.432 2.68391 107.639 1.77969 105.792C1.02782 104.256 0.340569 102.656 0.112146 100.953C-0.317453 97.7501 0.947977 94.4933 2.91485 91.9697C4.88173 89.4461 7.49932 87.5524 10.1468 85.8054C12.1578 84.4784 14.2275 83.2057 16.485 82.3995C18.8131 81.5681 21.6478 81.346 23.5153 82.9989ZM83.261 68.8918C79.9133 72.1029 75.4633 74.0755 70.8931 74.3743C68.8732 74.5064 66.7875 74.308 64.9598 73.4144C63.1321 72.5208 61.5927 70.8547 61.1679 68.8211L61.0162 68.8692C59.6933 69.2993 58.1787 70.0776 58.192 71.4786C58.2486 77.4202 58.114 83.3637 57.7887 89.2961C57.7262 90.4345 57.3044 91.929 56.1953 91.8955C52.255 91.7765 48.289 92.7114 44.7931 94.5834C48.7279 100.925 54.3238 106.469 61.2846 108.791C68.2453 111.114 76.6405 109.663 81.5183 104.056C83.0818 102.259 84.2326 100.134 85.3408 98.0054L85.5959 97.5143C85.8315 97.0602 86.0714 96.5207 85.8619 96.0533C85.7281 95.755 86.0165 95.4449 86.2812 95.2608C90.1737 92.5536 95.969 93.2881 99.1047 96.886C98.8563 96.3866 99.0822 95.6983 99.5742 95.4555C99.9652 96.1013 100.048 96.9345 99.792 97.6482C99.9615 97.8946 100.272 97.4982 100.299 97.1977C100.717 92.5208 100.684 87.8014 100.201 83.131C100.027 81.447 99.7905 79.7524 99.2042 78.1697C98.69 76.7818 97.9173 75.5096 97.0705 74.306C95.1225 71.5371 92.7542 69.081 90.0776 67.0539L89.8832 66.9085C89.4588 66.5963 89.0122 66.3086 88.5107 66.1683C86.5259 65.613 84.7648 67.4494 83.261 68.8918ZM56.2172 66.2013C54.0041 66.9667 51.6077 66.8195 49.2783 66.9849C45.9956 67.218 42.7573 68.0953 39.7894 69.5554C38.5111 70.1844 37.2746 70.9235 35.9228 71.3609C33.0518 72.2899 29.7607 71.7162 27.3485 69.8662C26.8285 73.9459 26.9818 78.1153 27.8001 82.143C27.8527 82.4017 28.0184 82.7326 28.2643 82.655C29.8958 82.1401 31.6504 82.8685 33.101 83.7925C34.5516 84.7166 35.9148 85.8687 37.5625 86.326C39.4953 86.8624 41.5436 86.3666 43.4567 85.7434L43.5999 85.6965C44.5806 85.3729 45.849 85.1031 46.4778 85.9413C47.0082 86.6484 46.6733 87.7043 46.1117 88.3855C45.5502 89.0666 44.7887 89.573 44.3305 90.3315C43.7681 91.2628 43.7651 92.5207 44.3233 93.4548C47.977 91.9489 51.8877 91.1041 55.8222 90.9708C56.6112 90.9441 56.8879 89.8948 56.9364 89.0851C57.3613 81.9897 57.4918 74.8758 57.3273 67.7691C57.3098 67.0116 56.916 65.9597 56.2172 66.2013ZM115.372 85.3879L115.528 85.4685C116.497 85.9745 117.529 86.6488 117.673 87.739C117.72 88.0981 117.661 88.463 117.577 88.8152C117.462 89.3027 117.287 89.803 116.919 90.1317C116.528 90.4801 115.978 90.579 115.461 90.5584C114.442 90.5177 113.423 90.0302 112.833 89.1761C112.243 88.3219 112.148 87.1003 112.699 86.2188C113.249 85.3373 114.459 84.9228 115.372 85.3879ZM113.861 86.6077C113.258 86.8665 113.04 87.7054 113.292 88.3257C113.544 88.946 114.143 89.3543 114.764 89.5635C115.4 89.7774 116.219 89.7599 116.598 89.1933C116.724 89.0047 116.784 88.7775 116.819 88.5514C116.895 88.0593 116.849 87.5144 116.54 87.13C116.158 86.6538 115.506 86.5582 114.896 86.5228L114.745 86.515C114.447 86.5013 114.137 86.4895 113.861 86.6077ZM37.6516 73.7831C37.728 74.0809 37.6693 74.3953 37.6171 74.6985C37.2497 76.8344 37.2231 79.0318 37.538 81.1765L37.5962 81.5562C37.6345 81.8247 37.6502 82.1081 37.5001 82.3242C37.3269 82.5735 36.8416 82.5484 36.8173 82.2431C36.6106 79.6445 36.4782 77.0396 36.4202 74.433C36.4091 73.9351 36.5356 73.273 37.0188 73.2347C37.3175 73.2111 37.5752 73.4854 37.6516 73.7831ZM20.6467 68.5757C21.004 68.6861 21.3473 68.9376 21.4509 69.306C21.5544 69.6745 21.3187 70.1401 20.9463 70.1642C20.5992 70.1867 20.3343 69.8619 20.0153 69.7193C19.4427 69.4633 18.8003 69.8207 18.2739 70.1659L18.006 70.3437C17.5006 70.6857 17.0111 71.0694 16.7336 71.6147C16.4497 72.1726 16.4259 72.8283 16.4347 73.4578C16.4408 73.8954 16.4607 74.3393 16.5924 74.7556C16.878 75.6585 17.6931 76.335 18.5972 76.5308C19.5013 76.7265 20.4682 76.4728 21.233 75.9401L21.3827 75.8355C21.5178 75.7441 21.6593 75.6644 21.8182 75.6565C22.0366 75.6458 22.2757 75.8573 22.2015 76.0687C22.1792 76.1321 22.1335 76.1834 22.0877 76.2317C20.8377 77.5513 18.679 77.8338 17.147 76.8782C16.8737 76.7078 16.6189 76.502 16.4124 76.2513C15.7916 75.4975 15.6757 74.4412 15.6587 73.4539C15.6494 72.9196 15.6623 72.3772 15.8101 71.8649C16.1294 70.7578 17.0317 69.9356 17.9696 69.2997C18.7659 68.7597 19.7331 68.2933 20.6467 68.5757ZM13.4142 66.3044L16.5307 70.1076C16.3592 70.2983 16.0588 70.3107 15.8271 70.2072C15.6212 70.1152 15.457 69.9507 15.3023 69.7818L13.4737 67.7608C13.2244 69.812 12.6205 71.8171 11.6986 73.6544C11.6089 73.8332 11.8631 73.9842 12.0578 74.0047C12.5335 74.0549 13.0144 73.999 13.4834 73.9036L13.7251 73.8534C14.1038 73.7761 14.4922 73.7154 14.8453 73.8592C15.274 74.0337 15.5386 74.675 15.1948 74.9908C14.9829 75.1854 14.6618 75.1612 14.3797 75.1254L11.3445 74.7396L11.2513 74.7259C10.9516 74.6754 10.6223 74.5548 10.5784 74.258C10.5519 74.0792 10.6486 73.9083 10.7391 73.7531C11.8194 71.9002 12.5391 69.8265 12.8447 67.6896L12.8907 67.3507C12.9501 66.9347 13.0552 66.4834 13.4142 66.3044ZM119.594 72.2798C119.97 72.5532 120.325 73.0901 120.034 73.4569C119.851 73.6864 119.5 73.692 119.238 73.5686C118.976 73.4451 118.772 73.2237 118.546 73.04C117.618 72.2867 116.226 72.2073 115.223 72.8506C115.08 72.9422 114.938 73.056 114.88 73.2183C114.822 73.3807 114.886 73.5988 115.048 73.6479C116.328 73.0906 117.854 73.1685 119.074 73.8534C119.25 73.9524 119.435 74.0841 119.478 74.2858C119.522 74.4874 119.311 74.7292 119.136 74.6283C118.34 74.1704 117.39 74.0019 116.49 74.1591C116.071 74.2324 115.661 74.3741 115.236 74.3879C114.811 74.4018 114.346 74.256 114.12 73.8856C113.912 73.5437 113.961 73.0824 114.164 72.7373C114.367 72.3922 114.7 72.1477 115.048 71.9615C116.465 71.2037 118.29 71.3315 119.594 72.2798ZM77.1338 53.7898C74.0949 56.4148 70.5239 58.3861 66.7168 59.5419L66.4626 59.6178C65.9684 59.7628 65.3464 60.0844 65.4503 60.6017L65.5143 60.9227C65.7043 61.8878 65.8653 62.8707 65.7298 63.8419C65.5838 64.8892 65.0219 65.9375 64.0921 66.3777L64.0066 66.416C62.3509 67.1163 62.1183 69.6578 63.204 71.1208C64.2897 72.5838 66.1725 73.1503 67.951 73.3617C73.1709 73.982 78.6182 72.1835 82.5096 68.5549C83.9211 67.2388 85.184 65.6634 86.9314 64.8815L82.5615 63.2378C81.3826 62.7943 80.1884 62.3427 79.1622 61.5996C78.1361 60.8565 77.2804 59.7745 77.0706 58.5026C76.8137 56.9446 77.5405 55.3137 77.1338 53.7898ZM26.7251 58.002C26.6155 58.0521 26.5035 58.1186 26.4507 58.2294C26.3979 58.3403 26.4158 58.4714 26.4344 58.5933L27.4356 65.0789C27.7307 66.9902 28.1452 69.1083 29.6791 70.2308C31.3594 71.4604 33.6669 70.9786 35.6236 70.2766L35.728 70.2388C39.3703 68.9094 42.8756 67.0589 46.693 66.4363C49.4337 65.9893 52.3079 66.1806 54.8995 65.161C53.9516 63.6907 51.8979 63.6985 50.1799 63.8914L36.1446 65.5305C35.0573 65.6575 33.9152 65.8057 33.0322 66.47C32.6458 66.7606 32.28 67.1599 31.8016 67.1802C31.3361 67.1999 30.9315 66.5033 31.2963 66.2471L31.3285 66.2268C31.7285 66.0005 31.7016 65.4103 31.6198 64.9487L31.1952 62.5568C30.9806 61.3704 30.7185 60.1631 30.0278 59.1945C29.2818 58.1484 27.8784 57.4753 26.7251 58.002ZM123.62 67.6957C123.958 68.1006 123.973 68.7221 123.747 69.2029C123.522 69.6837 123.094 70.0372 122.632 70.2808C122.075 70.5748 121.461 70.7282 120.845 70.8591L120.538 70.9232C120.417 70.9481 120.29 70.9726 120.174 70.9327C120.077 70.8996 119.998 70.8249 119.934 70.7428C119.617 70.3337 119.628 69.7303 119.843 69.256C120.058 68.7817 120.442 68.4131 120.837 68.083C121.24 67.7457 121.68 67.4279 122.186 67.3045C122.692 67.1812 123.281 67.29 123.62 67.6957ZM121.96 68.4074L121.798 68.5193C121.556 68.6898 121.323 68.8761 121.16 69.1247C120.961 69.4286 120.892 69.8527 121.088 70.1584L122.39 69.414C122.602 69.2927 122.822 69.1645 122.959 68.9592C123.097 68.7538 123.124 68.4473 122.954 68.2695C122.699 68.0025 122.264 68.2001 121.96 68.4074ZM101.194 53.7662C101.285 53.804 101.346 53.8886 101.399 53.9749L103.306 57.1762C103.647 57.7483 104.423 57.812 105.074 57.7649C106.322 57.6746 107.558 57.4128 108.739 56.9888C108.937 56.9177 109.125 57.1767 109.082 57.3879C109.039 57.599 108.863 57.7493 108.697 57.8819L105.833 60.1765C105.481 60.1508 105.581 59.5591 105.866 59.3461L105.95 59.2856C106.225 59.095 106.559 58.9067 106.542 58.5793L104.886 59.1108C104.57 59.2122 104.219 59.312 103.918 59.1693C103.718 59.0745 103.578 58.8885 103.452 58.7013L101.348 55.5467L101.312 58.3091C101.309 58.5356 101.3 58.7813 101.16 58.9564C101.06 59.0807 100.912 59.1474 100.764 59.2036L97.8616 60.2737C98.6366 61.07 100.087 60.2321 101.014 60.8322C101.65 61.2433 101.758 62.1595 101.621 62.9181C101.484 63.6767 101.17 64.4148 101.211 65.1852C101.74 64.7904 102.129 64.2008 102.29 63.5491C102.355 63.2865 102.387 63.0069 102.529 62.7787C102.921 62.1497 103.857 62.2777 104.506 62.6141C105.155 62.9505 105.829 63.4349 106.539 63.2749L105.509 61.5823C105.415 61.4279 105.317 61.2607 105.326 61.0787C105.334 60.8968 105.502 60.7129 105.672 60.7657C105.746 60.7889 105.801 60.8493 105.851 60.9126L108.149 63.9739C107.342 64.5207 106.277 64.1762 105.345 63.9123L105.206 63.8752C104.297 63.6439 103.188 63.621 102.686 64.4127C102.332 64.9707 101.916 65.4876 101.45 65.9504C101.254 66.1453 101.03 66.3396 100.759 66.3714C100.487 66.4033 100.176 66.1919 100.2 65.9124L100.467 62.8169C100.484 62.6164 100.497 62.3983 100.389 62.2309C100.274 62.0546 100.058 61.9861 99.8596 61.9296L97.3489 61.2171C96.8031 61.0622 96.7991 60.189 97.2085 59.787C97.618 59.3851 98.221 59.3008 98.7667 59.1453C99.3124 58.9897 99.9025 58.6596 100.001 58.0866L100.638 54.3778C100.693 54.0607 100.903 53.6454 101.194 53.7662ZM33.6446 1.47714L33.1809 1.86434C30.0916 4.45149 27.0472 7.16378 24.7814 10.5269C22.4024 14.0581 20.9418 18.437 21.6501 22.6699C22.6822 28.8382 28.0513 33.7506 28.2809 40.005C28.3114 40.8358 29.1347 41.3529 29.8234 41.7891C32.5416 43.5105 34.5559 46.2427 35.8851 49.226C37.1727 52.1162 37.8602 55.2478 38.3601 58.3864L38.4079 58.6901C38.4823 59.1687 38.5367 59.7135 38.2362 60.0871C37.9358 60.4607 37.1633 60.3299 37.1933 59.8462C37.5458 54.1595 35.5347 48.3581 31.7628 44.1813C30.7829 43.0962 29.6447 42.0905 28.2648 41.6656C28.1769 43.856 27.4593 46.0881 25.9401 47.6271C24.4209 49.1662 22.0242 49.8693 20.0575 49.02C18.0908 48.1707 16.8876 45.6063 17.7727 43.6117C18.5142 41.9408 20.3557 41.0966 22.1089 40.7409C23.8292 40.3919 25.6125 40.3737 27.3392 40.6875C27.5715 40.7298 27.6727 40.396 27.6681 40.1536C27.5432 33.6526 21.6954 28.5628 20.9278 22.1085C20.5083 18.5812 21.6794 15.0305 23.3791 11.9358C25.611 7.87172 28.7862 4.35899 32.566 1.77229L32.6649 1.70632C32.9676 1.51048 33.3206 1.34345 33.6446 1.47714ZM52.899 34.5884C52.0528 35.1478 52.0745 36.3891 52.0045 37.4205C51.9085 38.8353 51.4351 40.2514 50.5119 41.3056C49.5887 42.3599 48.1861 43.0075 46.8168 42.8305C46.4625 42.7847 46.3548 43.3115 46.4013 43.6753C47.1973 49.9105 50.8781 56.0321 56.599 58.2647C60.0965 59.6296 64.0471 59.4483 67.6129 58.2849C71.0938 57.1492 74.2444 55.1293 77.1237 52.8172L77.3339 52.6475C77.7514 52.3086 78.1712 51.9556 78.4614 51.4973C78.7557 51.0325 78.9005 50.4828 78.971 49.933C79.3488 46.9878 77.4336 43.9061 74.6744 43.0197C74.3497 42.9154 74.4249 42.374 74.7098 42.183C74.9947 41.9919 75.3616 42.0048 75.687 41.9027C76.5684 41.6259 76.9739 40.5943 77.1751 39.67C77.4515 38.4 77.5291 36.9517 76.7632 35.9153C75.7282 34.5147 73.7156 34.5165 72.0092 34.6508L69.2403 34.8686C68.2846 34.9438 67.0545 35.2899 67.0096 36.2737C66.913 38.3927 66.0047 40.5035 64.3999 41.8377C62.7951 43.172 60.484 43.6333 58.5788 42.8166C56.7039 42.0128 55.3794 39.9154 55.596 37.8446L55.6077 37.7444C55.7205 36.8685 55.6584 35.9173 55.159 35.198C54.6596 34.4786 53.6221 34.1104 52.899 34.5884ZM75.7688 1.47581C74.5341 1.83651 73.3482 2.41828 72.3734 3.27657C71.0112 4.47605 70.1056 6.20935 69.8852 8.03883C69.8071 8.68706 69.9326 9.52309 70.5452 9.69723C72.0418 10.1227 73.3809 11.1092 74.2534 12.4291C72.8385 11.5639 71.2875 10.9344 69.6792 10.5725L76.4771 14.5253C76.8711 14.7544 77.2803 14.9977 77.5281 15.3871C77.7758 15.7765 77.8018 16.3576 77.4613 16.6643L76.9861 16.2843C75.7952 15.3371 74.5776 14.4189 73.2447 13.702C72.2311 13.1569 71.1613 12.734 70.0857 12.3312L69.4987 12.1128C67.5076 11.3746 65.4983 10.6317 63.4011 10.3368C61.4545 10.063 59.4561 10.1845 57.5545 10.6924L57.1795 10.7911C54.6107 11.4591 51.9322 12.0053 49.8085 13.6193C48.5452 14.5793 47.5559 15.8646 46.6165 17.1589L46.3949 17.4678C44.5286 20.1011 42.8232 23.3476 43.9151 26.3687C48.9285 25.7342 52.8341 21.7481 57.3757 19.4758C57.7228 19.3022 58.2952 19.249 58.348 19.642L53.2661 22.7281C53.4072 23.525 53.2738 24.3703 52.895 25.0806C56.608 24.0025 60.0792 22.0557 62.9714 19.4315L63.1552 19.2631C63.614 18.8387 64.4979 18.4875 64.6934 19.0892L64.4448 19.2319C63.5328 19.7591 62.6256 20.3357 61.9969 21.1894C61.311 22.1206 61.038 23.4744 61.6459 24.4612L68.0613 20.5795C68.3219 20.4218 68.6061 20.2584 68.9069 20.2909C69.2077 20.3233 69.4897 20.6562 69.3597 20.9369L69.1416 20.9836C68.4491 21.1348 67.7469 21.3242 67.2077 21.7877C66.6118 22.3001 66.3032 23.2605 66.746 23.9166C67.5403 25.0934 68.1849 26.3768 68.6582 27.7239C68.6685 27.1349 69.4498 26.8336 69.9649 27.0922C70.48 27.3509 70.7525 27.9346 70.9392 28.4916C71.4731 30.0852 71.6142 31.816 71.3457 33.4786C72.959 34.0639 74.8511 33.3725 76.4028 34.1129C77.8432 34.8002 78.5479 36.5829 78.4477 38.2116C78.3476 39.8403 77.5987 41.3462 76.799 42.7561C79.0342 44.5356 80.2282 47.6008 79.8053 50.4737C80.195 50.4083 80.5243 50.0627 80.5796 49.6609L81.466 50.2357C80.0795 51.0411 79.0931 52.5356 78.8777 54.1572C84.9693 48.2993 86.9917 39.0152 86.1129 30.4896L86.0785 30.1716C85.7302 27.093 84.9013 23.8838 82.6483 21.8446C83.8562 21.1289 85.4055 21.4104 86.6981 20.873C87.9193 20.3652 88.7586 19.1882 89.3254 17.9662C91.2207 13.8807 90.568 8.6826 87.7258 5.22526C84.8835 1.76791 80.0053 0.238196 75.7688 1.47581ZM55.8548 52.7127C56.0469 52.7453 56.2649 52.8121 56.3402 52.9966C56.4603 53.2914 56.1236 53.5609 55.8322 53.6724C55.4091 53.8344 54.9649 53.9381 54.5152 53.9799C54.1379 54.015 53.6619 53.9401 53.5452 53.5698C53.4685 53.3262 53.6017 53.0526 53.8034 52.9024C54.0052 52.7522 54.2602 52.7015 54.5079 52.6739C54.9558 52.6241 55.4103 52.6371 55.8548 52.7127ZM48.9637 48.4878C50.2895 50.0889 52.3634 50.9367 54.409 50.9532C56.4547 50.9698 58.4616 50.2098 60.1599 49.0378L60.3028 48.9392C60.5185 48.7919 60.7423 48.6536 60.9952 48.6083C61.3044 48.5531 61.6721 48.6865 61.7772 48.9903C60.0009 50.5407 57.7742 51.5645 55.4532 51.781C53.1322 51.9974 50.7282 51.3854 48.8343 49.9897C48.4926 49.7379 48.1394 49.4066 48.1253 48.9747C48.1112 48.5429 48.6913 48.1588 48.9637 48.4878ZM21.1764 41.7063C20.2545 42.0085 19.3268 42.4514 18.7452 43.2461C17.8813 44.4266 18.0324 46.2178 18.9655 47.3413C19.8985 48.4648 21.4764 48.9134 22.8841 48.6147C24.2917 48.3161 25.5139 47.3402 26.3049 46.1069C27.0959 44.8736 27.4832 43.4013 27.6006 41.9292C27.6203 41.6824 27.5766 41.3557 27.3397 41.3104C25.2954 40.9196 23.1574 41.0569 21.1764 41.7063ZM53.8418 35.954C53.8803 36.2936 53.7524 36.6267 53.6349 36.9465C52.9711 38.7535 52.567 40.6611 52.4398 42.5882C52.4192 42.9003 52.4075 43.224 52.5188 43.5152C52.624 43.7902 52.8682 44.0294 53.1513 44.0459L53.2017 44.0464C53.4594 44.037 53.5817 44.4318 53.4196 44.6379C53.2574 44.844 52.9533 44.8671 52.7061 44.7915C52.1986 44.6363 51.8348 44.1508 51.6876 43.6282C51.5403 43.1055 51.578 42.5475 51.6517 42.0086C51.9017 40.1818 52.5507 38.4106 52.5826 36.566C52.5915 36.0455 52.6951 35.3438 53.2001 35.3024C53.5316 35.2752 53.8033 35.6145 53.8418 35.954ZM60.1501 29.7886C59.0958 30.0115 58.291 30.9002 57.7442 31.853C56.6241 33.8048 56.305 36.2249 56.8792 38.4127C57.137 39.3951 57.5777 40.3445 58.2693 41.0727C58.9608 41.8008 59.9215 42.2896 60.9114 42.2728C61.6024 42.261 62.2731 42.009 62.8733 41.6571C64.8778 40.4819 66.1512 38.1001 66.0417 35.7313C65.9321 33.3625 64.4447 31.1156 62.3408 30.141C61.6557 29.8236 60.8862 29.6329 60.1501 29.7886ZM45.5997 28.8174C43.716 29.5345 42.5 31.5448 42.2408 33.5918C41.9817 35.6389 42.5404 37.7096 43.3368 39.6047C43.5513 40.1151 43.7952 40.634 44.207 40.9945C44.6188 41.355 45.2423 41.5166 45.7102 41.2376C45.9281 41.1077 46.1316 41.4114 46.2969 41.6067C46.6262 41.9957 47.2056 42.0289 47.6976 41.9278C49.3186 41.595 50.5643 40.1393 51.0685 38.5216C51.5559 36.9578 51.4519 35.2651 51.1639 33.6469L51.1335 33.4798C50.8297 31.8478 50.1435 30.0137 48.5973 29.5277C47.7866 29.2729 46.8086 29.4218 46.1819 28.8351C46.0306 28.6934 45.7916 28.7443 45.5997 28.8174ZM75.5346 35.737C76.1718 36.4625 75.911 37.5891 75.5923 38.5199L75.5663 38.595C75.4389 38.96 75.3067 39.3337 75.0628 39.6297C74.819 39.9258 74.436 40.1325 74.0665 40.0535C73.6971 39.9744 73.4091 39.5341 73.5643 39.1806C73.757 38.7418 74.4118 38.7194 74.648 38.3037L74.0096 38.2418C73.5796 38.2001 73.1166 38.144 72.798 37.8442C72.4794 37.5445 72.4394 36.9102 72.8268 36.7138C73.0953 36.5776 73.4186 36.711 73.6671 36.8826C73.9156 37.0542 74.1533 37.2714 74.4493 37.3182C74.7452 37.3649 75.105 37.1261 75.044 36.8249C74.9591 36.4056 75.1684 35.9415 75.5346 35.737ZM60.9607 38.5691C61.0112 38.8575 61.0297 39.1635 60.9247 39.436C60.8196 39.7084 60.5636 39.9364 60.2786 39.9242C59.8374 39.9053 59.601 39.383 59.5239 38.9361C59.4287 38.3839 59.5775 37.6241 60.1217 37.583C60.5875 37.5478 60.878 38.0968 60.9607 38.5691ZM47.3645 37.397C47.5843 37.7262 47.5532 38.166 47.4659 38.555C47.3542 39.0528 47.0732 39.6081 46.5787 39.6601C46.1322 39.707 45.7509 39.2965 45.6049 38.8603C45.4267 38.328 45.5132 37.6777 45.9176 37.298C46.322 36.9183 47.0545 36.9329 47.3645 37.397ZM47.7761 31.7793C47.9735 31.8726 48.1126 32.1281 48.0127 32.3263L47.8218 32.3778C46.7351 32.6758 45.5765 33.0905 45.0575 34.1002C44.9331 34.3422 44.8525 34.6092 44.6976 34.8318C44.5426 35.0545 44.2815 35.2314 44.0209 35.175C43.7239 35.1108 43.5521 34.7595 43.5838 34.4493C43.6155 34.1392 43.7992 33.8688 43.9959 33.6313C44.7958 32.6654 45.9232 31.9916 47.1357 31.7546C47.3491 31.7129 47.5787 31.6861 47.7761 31.7793ZM61.665 32.337C61.99 32.6061 62.2369 32.9647 62.5653 33.2293C62.8427 33.453 63.1933 33.6298 63.3194 33.9681C63.4455 34.3065 63.0662 34.7844 62.7911 34.5578C62.0727 33.9663 61.2752 33.4762 60.4282 33.1058C60.0442 32.9378 60.1313 32.2738 60.5059 32.0848C60.8805 31.8957 61.3401 32.0679 61.665 32.337ZM57.6401 30.215C56.9321 30.4548 56.4289 31.2205 56.477 31.9851C56.7478 31.8426 56.9541 31.5765 57.0287 31.2734L57.018 31.2428C57.3323 30.9876 57.5563 30.6175 57.6401 30.215Z" fill="#00160A"/>
<path fill-rule="evenodd" clip-rule="evenodd" d="M17.7425 121.846C18.0273 121.848 18.2893 121.984 18.5382 122.133L18.6727 122.215C20.1982 123.154 21.8079 123.948 23.4748 124.583C23.7039 124.671 23.6327 125.066 23.4094 125.168C23.1862 125.27 22.9285 125.179 22.7008 125.088L17.7781 123.12C17.4631 122.994 17.0975 122.802 17.0698 122.456C17.0423 122.111 17.4058 121.843 17.7425 121.846Z" fill="#E7EAEE"/>
<path fill-rule="evenodd" clip-rule="evenodd" d="M9.89347 116.334L25.1218 121.885L25.2175 121.922C25.62 122.084 26.0553 122.36 26.0123 122.787C25.9772 123.135 25.6025 123.36 25.2622 123.348C24.9743 123.338 24.7083 123.206 24.4539 123.062L24.3162 122.982C22.1929 121.745 19.9652 120.724 17.6804 119.841C15.0923 118.842 12.431 118.021 9.76544 117.265C9.35781 117.15 8.84125 116.776 9.075 116.413C9.23894 116.159 9.61396 116.232 9.89347 116.334Z" fill="#E7EAEE"/>
</svg>
